<svg width="87" height="24" viewBox="0 0 87 24" fill="none" xmlns="http://www.w3.org/2000/svg">
<path d="M2.14406 4.34C1.92406 4.52 1.69406 4.69 1.45406 4.85C1.21406 5.01 0.934063 5.09 0.614063 5.09C0.314063 5.09 0.164062 4.82 0.164062 4.28C0.164062 3.18 0.674063 2.28 1.69406 1.58C2.67406 0.859998 3.85406 0.499998 5.23406 0.499998C6.61406 0.499998 7.62406 0.989998 8.26406 1.97C8.78406 2.75 9.04406 3.81 9.04406 5.15C9.04406 5.73 8.93406 6.48 8.71406 7.4C7.57406 12.16 6.99406 15.46 6.97406 17.3C6.99406 18.18 7.36406 18.78 8.08406 19.1C8.36406 19.22 8.69406 19.28 9.07406 19.28C10.8541 19.28 12.5341 18.23 14.1141 16.13C13.3141 13.33 12.9141 10.15 12.9141 6.59C12.9141 5.27 13.2241 4.2 13.8441 3.38C14.4841 2.54 15.5141 2.12 16.9341 2.12C17.9941 2.12 18.7941 2.42 19.3341 3.02C19.8941 3.62 20.1741 4.41 20.1741 5.39C20.1741 7.41 19.6441 9.9 18.5841 12.86C18.2241 13.86 17.8041 14.85 17.3241 15.83C18.1841 18.15 19.3241 19.31 20.7441 19.31C22.3441 19.31 23.7441 18.23 24.9441 16.07C25.8241 14.49 26.5441 12.34 27.1041 9.62C25.6441 9.42 24.4841 8.8 23.6241 7.76C22.7841 6.72 22.3641 5.61 22.3641 4.43C22.3641 3.25 22.7341 2.27 23.4741 1.49C24.2141 0.709999 25.2241 0.319999 26.5041 0.319999C27.7841 0.299999 28.7441 0.749999 29.3841 1.67C30.0241 2.57 30.3441 3.8 30.3441 5.36V5.96C30.3441 6.18 30.3341 6.42 30.3141 6.68C30.6541 6.52 30.9441 6.36 31.1841 6.2C31.4241 6.02 31.6641 5.93 31.9041 5.93C32.3041 5.93 32.5041 6.1 32.5041 6.44C32.5041 7.1 32.2841 7.68 31.8441 8.18C31.4241 8.68 30.8541 9.06 30.1341 9.32C29.8741 11.66 29.5241 13.5 29.0841 14.84C28.2641 17.42 27.1841 19.38 25.8441 20.72C24.2441 22.28 22.2741 23.07 19.9341 23.09C17.9941 23.09 16.4141 21.8 15.1941 19.22C13.1541 21.8 10.8341 23.09 8.23406 23.09C6.45406 23.09 5.03406 22.65 3.97406 21.77C2.93406 20.87 2.41406 19.46 2.41406 17.54C2.41406 17.08 2.66406 15.87 3.16406 13.91C3.68406 11.93 4.09406 10.31 4.39406 9.05C4.69406 7.77 4.84406 6.76 4.84406 6.02C4.84406 4.4 4.43406 3.59 3.61406 3.59C3.33406 3.59 3.07406 3.67 2.83406 3.83C2.61406 3.99 2.38406 4.16 2.14406 4.34ZM16.6941 4.64C16.1741 4.64 15.9141 5.45 15.9141 7.07C15.9141 8.69 16.0541 10.32 16.3341 11.96C17.0941 9.98 17.4741 8.06 17.4741 6.2C17.4741 5.8 17.4041 5.44 17.2641 5.12C17.1441 4.8 16.9541 4.64 16.6941 4.64ZM26.8341 2.93C26.4141 2.93 26.2041 3.26 26.2041 3.92C26.2041 5.12 26.6741 5.99 27.6141 6.53C27.6941 5.77 27.7341 5.26 27.7341 5C27.7341 4.44 27.6641 3.99 27.5241 3.65C27.3641 3.17 27.1341 2.93 26.8341 2.93ZM31.4637 17.81C31.4637 17.57 31.6237 17.45 31.9437 17.45C32.2637 17.45 33.2537 17.67 34.9137 18.11C35.2937 14.83 36.3637 11.27 38.1237 7.43C38.7437 6.03 39.4837 5.33 40.3437 5.33C40.5037 5.33 40.6537 5.5 40.7937 5.84C40.9537 6.18 41.0337 6.6 41.0337 7.1C41.0337 7.7 40.7137 9.35 40.0737 12.05C39.4537 14.75 39.0437 17.1 38.8437 19.1C40.1637 19.4 41.3237 19.55 42.3237 19.55C43.3437 19.55 44.2737 19.29 45.1137 18.77C45.9537 18.23 46.6737 17.54 47.2737 16.7C48.5137 14.92 49.1337 12.78 49.1337 10.28C49.1137 5.66 47.2737 3.35 43.6137 3.35C42.3137 3.37 40.0137 3.95 36.7137 5.09C36.0737 5.31 35.5137 5.42 35.0337 5.42C34.5537 5.42 34.3137 5.28 34.3137 5C34.3137 4.62 34.5937 4.17 35.1537 3.65C35.7137 3.13 36.4337 2.63 37.3137 2.15C39.4737 0.989999 41.5737 0.409999 43.6137 0.409999C46.4137 0.409999 48.7137 1.16 50.5137 2.66C52.6337 4.44 53.6837 7.14 53.6637 10.76C53.6637 12.3 53.4237 13.82 52.9437 15.32C52.4637 16.82 51.7337 18.16 50.7537 19.34C49.7737 20.5 48.5337 21.44 47.0337 22.16C45.5337 22.88 43.7637 23.24 41.7237 23.24C40.9037 23.24 39.8637 23.06 38.6037 22.7C38.4637 23.08 38.1137 23.27 37.5537 23.27C36.5137 23.27 35.8037 23.1 35.4237 22.76C35.0637 22.4 34.8537 21.82 34.7937 21.02C33.8337 20.48 33.0337 19.92 32.3937 19.34C31.7737 18.76 31.4637 18.25 31.4637 17.81ZM85.7208 15.92C86.0608 15.92 86.2308 16.38 86.2308 17.3C86.2308 17.8 86.0208 18.41 85.6008 19.13C85.1808 19.83 84.6308 20.48 83.9508 21.08C83.2908 21.66 82.5508 22.14 81.7308 22.52C80.9108 22.9 80.0408 23.09 79.1208 23.09C78.2208 23.09 77.5108 22.8 76.9908 22.22C76.4908 21.62 76.2408 20.96 76.2408 20.24C76.2408 19.5 76.3608 18.67 76.6008 17.75C76.8408 16.83 77.1008 15.87 77.3808 14.87C78.1408 12.21 78.5308 10.34 78.5508 9.26C78.5508 8.8 78.4908 8.45 78.3708 8.21C78.2508 7.95 78.0208 7.82 77.6808 7.82C77.0808 7.82 76.4408 8.18 75.7608 8.9C75.0808 9.62 74.4408 10.54 73.8408 11.66C72.4608 14.22 71.7308 16.72 71.6508 19.16C71.6908 19.44 71.7308 19.72 71.7708 20C71.8108 20.28 71.8308 20.58 71.8308 20.9C71.8308 21.54 71.5108 22.13 70.8708 22.67C70.2508 23.19 69.5508 23.45 68.7708 23.45C68.3108 23.45 67.9708 23.23 67.7508 22.79C67.5308 22.33 67.4208 21.77 67.4208 21.11C67.4208 20.45 67.5708 19.55 67.8708 18.41C68.1708 17.27 68.5008 16.06 68.8608 14.78C69.8208 11.4 70.3108 8.88 70.3308 7.22C70.3308 6.38 70.2208 5.72 70.0008 5.24C69.8008 4.76 69.4008 4.52 68.8008 4.52C67.7208 4.52 66.6508 5.29 65.5908 6.83C64.5308 8.37 63.5808 10.76 62.7408 14C62.5208 14.84 62.3508 15.57 62.2308 16.19L62.2008 16.76C62.5808 18.6 62.7708 19.8 62.7708 20.36C62.7708 21.52 62.3608 22.3 61.5408 22.7C61.1608 22.88 60.7908 23.05 60.4308 23.21C60.0908 23.37 59.7208 23.45 59.3208 23.45C58.3208 23.45 57.8208 22.5 57.8208 20.6C57.8208 18.68 58.3508 14.94 59.4108 9.38C59.7908 7.38 59.9808 6.26 59.9808 6.02C59.9808 4.4 59.5708 3.59 58.7508 3.59C58.4708 3.59 58.2108 3.67 57.9708 3.83C57.7508 3.99 57.5208 4.16 57.2808 4.34C57.0608 4.52 56.8308 4.69 56.5908 4.85C56.3508 5.01 56.0708 5.09 55.7508 5.09C55.4508 5.09 55.3008 4.82 55.3008 4.28C55.3008 3.18 55.8108 2.28 56.8308 1.58C57.8108 0.859998 59.0008 0.499998 60.4008 0.499998C62.2008 0.499998 63.2608 1.34 63.5808 3.02C63.6608 3.52 63.7208 4.05 63.7608 4.61C65.2408 1.83 67.1108 0.439999 69.3708 0.439999C71.8308 0.439999 73.2408 1.62 73.6008 3.98C73.7208 4.66 73.7708 5.39 73.7508 6.17V6.41C75.0508 4.61 76.5908 3.71 78.3708 3.71C80.8908 3.71 82.1508 5.23 82.1508 8.27C82.1508 9.59 81.9408 11.14 81.5208 12.92C81.1208 14.68 80.8208 15.95 80.6208 16.73C80.4408 17.49 80.3508 18.08 80.3508 18.5C80.3508 19.26 80.6108 19.64 81.1308 19.64C81.6708 19.64 82.9408 18.6 84.9408 16.52C85.3008 16.12 85.5608 15.92 85.7208 15.92Z" fill="#1814F3"/>
</svg>
